<svg width="150" height="32" xmlns="http://www.w3.org/2000/svg"><g fill="#FF8000" fill-rule="evenodd"><path d="M15.117 2.298a1.503 1.503 0 011.796 0 56.974 56.974 0 013.992 2.78s.3.199.4-.199a4.08 4.08 0 01.1-1.489.748.748 0 01.698-.496s1.497.099 2.495.198a.995.995 0 01.798.894s.599 4.17.798 5.66c.21.787.622 1.506 1.198 2.084a41.683 41.683 0 012.495 3.774s.499 1.092-.599 1.191c0 0-2.096.199-2.295.298a.557.557 0 00-.5.596s-.099 7.248-.598 10.822c0 0-.1 1.39-.898 1.39 0 0-2.096-.099-2.595-.099 0 0-.2 0-.2-.298 0 0 1.098-11.319.4-17.078a.993.993 0 00-.6-.893s-.498-.199-.997.496a17.9 17.9 0 00-3.393 10.227c-.065.767.003 1.54.2 2.284 0 0 .2.298 1.097.397l1.098.198s.2 0 .2.298c0 0-.3 3.376-.3 3.972.015.14-.02.28-.1.397a.581.581 0 01-.399.1H13.92a.49.49 0 01-.299-.1c-.1-.198-.3-4.27-.3-4.865 0-.1.1-.199.2-.298a2.977 2.977 0 001.397-2.184 7.755 7.755 0 000-1.887s.2-6.355.2-7.447c0 0 .1-.298-.4-.397a.38.38 0 00-.498.298s-.3 4.27-.3 5.858c0 0 .1 1.092-.598 1.092 0 0-.699.1-.799-.794 0 0 .1-4.07.2-6.156a.428.428 0 00-.4-.397c-.199-.1-.498.1-.498.397 0 0-.3 3.972-.3 5.957 0 0 .1.993-.698.993 0 0-.699.1-.699-.794 0 0 .2-5.66.2-6.057a.457.457 0 00-.4-.496h-.1c-.199 0-.498.1-.498.397v.1s-.32 6.751-.32 8.737a3.599 3.599 0 001.497 2.88c.114.057.19.17.2.297 0 0 .2 3.575.3 4.766 0 0 .1.298-.2.298l-3.793-.199s-.598.1-.798-.695a93.854 93.854 0 01-.698-11.418.557.557 0 00-.5-.596s-1.896-.198-2.395-.298a.824.824 0 01-.598-.993c0-.099.1-.099.1-.198A41.024 41.024 0 0115.116 2.298z"/><g fill-rule="nonzero"><path d="M46.92 14.3v-1.8a.43.43 0 00-.4-.4h-9.8a.43.43 0 00-.4.4v1.8a.43.43 0 00.4.4h3.2a.22.22 0 01.2.2v10.2a.43.43 0 00.4.4h2.2a.43.43 0 00.4-.4V14.9a.22.22 0 01.2-.2h3.2a.43.43 0 00.4-.4"/><path d="M52.42 16.8a3 3 0 00-1.3-.9 7.61 7.61 0 00-2.1-.3 5.7 5.7 0 00-2.2.4 5.07 5.07 0 00-1.5.7.64.64 0 000 .6l.9.9a.38.38 0 00.6 0 3 3 0 01.7-.5 2.77 2.77 0 011.3-.3 2 2 0 011.3.4 2.17 2.17 0 01.5 1.6.22.22 0 01-.2.2h-1.1a6.6 6.6 0 00-1.4.1 3.08 3.08 0 00-1.3.3 3.38 3.38 0 00-1.2.6 2.36 2.36 0 00-.8.9 3.19 3.19 0 00-.3 1.4c.004.418.107.83.3 1.2a5.5 5.5 0 00.7.9 3.7 3.7 0 001.1.5 5 5 0 001.2.2 5.08 5.08 0 001.7-.3 2 2 0 001-.8h.2v.4a.43.43 0 00.4.4h1.8a.43.43 0 00.4-.4v-4.3a11.4 11.4 0 00-.2-2.6 1.46 1.46 0 00-.5-1.3m-1.7 5.3a1.43 1.43 0 01-.7 1.3 4.88 4.88 0 01-.7.3 2.2 2.2 0 01-.8.1 2.92 2.92 0 01-.9-.2c-.3-.1-.4-.4-.4-.8a.91.91 0 01.3-.7 2 2 0 01.8-.4 2.77 2.77 0 01.9-.1h1.3a.22.22 0 01.2.2v.3zM80.92 16.8a3 3 0 00-1.3-.9 7.61 7.61 0 00-2.1-.3 5.7 5.7 0 00-2.2.4 8 8 0 00-1.6.8.64.64 0 000 .6l.9.9a.37.37 0 00.6 0 3 3 0 01.7-.5 2.77 2.77 0 011.3-.3 2 2 0 011.3.4 2.17 2.17 0 01.5 1.6.22.22 0 01-.2.2h-1.1a6.6 6.6 0 00-1.4.1 3.08 3.08 0 00-1.3.3 3.38 3.38 0 00-1.2.6 2.36 2.36 0 00-.8.9 3.19 3.19 0 00-.3 1.4c.004.418.107.83.3 1.2a5.5 5.5 0 00.7.9 3.7 3.7 0 001.1.5 4.77 4.77 0 002.9-.1 2 2 0 001-.8h.2v.4a.43.43 0 00.4.4h2a.43.43 0 00.4-.4v-4.3a11.4 11.4 0 00-.2-2.6 3.51 3.51 0 00-.6-1.4m-1.8 5.3a1.43 1.43 0 01-.7 1.3 4.88 4.88 0 01-.7.3 2.2 2.2 0 01-.8.1 2.92 2.92 0 01-.9-.2c-.3-.1-.4-.4-.4-.8a.91.91 0 01.3-.7 2 2 0 01.8-.4 2.77 2.77 0 01.9-.1h1.3a.22.22 0 01.2.2v.3zM105.42 16.8a3 3 0 00-1.3-.9 7.61 7.61 0 00-2.1-.3 5.7 5.7 0 00-2.2.4 4.13 4.13 0 00-1.5.7.64.64 0 000 .6l.9.9a.37.37 0 00.6 0 3 3 0 01.7-.5 2.77 2.77 0 011.3-.3 2 2 0 011.3.4 2.17 2.17 0 01.5 1.6.22.22 0 01-.2.2h-1.1a6.6 6.6 0 00-1.4.1 3.08 3.08 0 00-1.3.3 3.38 3.38 0 00-1.2.6 2.36 2.36 0 00-.8.9 3.19 3.19 0 00-.3 1.4c.004.418.107.83.3 1.2.176.34.413.646.7.9a3.7 3.7 0 001.1.5 4.77 4.77 0 002.9-.1 2 2 0 001-.8h.2v.4a.43.43 0 00.4.4h1.8a.43.43 0 00.4-.4v-4.3a11.4 11.4 0 00-.2-2.6 1.79 1.79 0 00-.5-1.3m-1.8 5.3a1.43 1.43 0 01-.7 1.3 4.88 4.88 0 01-.7.3 2.2 2.2 0 01-.8.1 2.92 2.92 0 01-.9-.2c-.3-.1-.4-.4-.4-.8a.91.91 0 01.3-.7 2 2 0 01.8-.4 2.77 2.77 0 01.9-.1h1.3a.22.22 0 01.2.2v.3zM71.52 16.8a3.59 3.59 0 00-1.4-1 5.66 5.66 0 00-1.8-.3 6.45 6.45 0 00-2 .3 3.36 3.36 0 00-1.6 1 5.27 5.27 0 00-1.1 1.5 6.94 6.94 0 000 4.5 3.27 3.27 0 001.1 1.5 5.37 5.37 0 001.6 1 6.45 6.45 0 002 .3 5.85 5.85 0 002.2-.5 4.51 4.51 0 001.4-1 .64.64 0 000-.6l-1.3-1-.1-.1c-.2-.1-.4-.1-.5.1a2.65 2.65 0 01-.6.5 2.35 2.35 0 01-2.6-.2 2.36 2.36 0 01-.7-1.6.22.22 0 01.2-.2h6a.43.43 0 00.4-.4v-.4a6.45 6.45 0 00-.3-2 8 8 0 00-.9-1.4m-1.9 2.5h-3.3a.22.22 0 01-.2-.2c0-.1.1-.3.1-.4a1 1 0 01.4-.5 2.09 2.09 0 01.6-.4 2.2 2.2 0 01.8-.1 2.11 2.11 0 011.3.5c.263.276.437.624.5 1a.35.35 0 01-.2.1"/><path d="M60.52 20.8a1.09 1.09 0 01-.1-.5l3.3-4.2a.19.19 0 000-.3H61a.91.91 0 00-.7.3l-.1.2-2.6 3.3h-.2v-8.1a.43.43 0 00-.4-.4h-2.1a.43.43 0 00-.4.4v13.6a.43.43 0 00.4.4h2a.43.43 0 00.4-.4v-3.9h.2l2.5 3.7.1.2a.91.91 0 00.7.3h2.9c.1-.1.1-.2 0-.2l-3.18-4.4zM97.52 16.4v-.3c0-.2-.2-.3-.4-.3h-1.6a1 1 0 00-.9.7v.2l-1.4 5-.1.1c-.1 0-.1 0-.1-.1v-.1l-1.4-5.1v-.1a.76.76 0 00-.8-.6H89a1 1 0 00-.9.7v.1l-1.3 5c0 .1-.1.1-.2 0l-1.5-5-.1-.2a.87.87 0 00-.8-.6h-1.9c-.2 0-.4.1-.4.3v.3l2.9 8.5v.1a.75.75 0 00.7.5h1.7a1 1 0 00.8-.6l.1-.2 1.4-4.9.1-.1a.1.1 0 01.1.1l1.6 5c0 .1.1.2.1.3a.75.75 0 00.7.5h1.7a.75.75 0 00.7-.5 1 1 0 00.1-.3l2.9-8.4M116.32 16.1c-.1-.2-.2-.3-.4-.3h-1.7a1 1 0 00-.8.5v.4l-1.6 5.1c0 .1-.1.1-.2.1s-.2 0-.2-.1l-1.9-5.2v-.1l-.1-.3a.67.67 0 00-.7-.4h-2c-.1 0-.2.1-.3.2V16.3l3.7 9.1v.6l-.1.2c-.1.2-.2.5-.3.7-.1.2-.2.3-.3.5a2.19 2.19 0 01-.5.3 2 2 0 01-.8.1h-1.2a.43.43 0 00-.4.4v1.6a.43.43 0 00.4.4h1.7a5 5 0 001.7-.2 2.07 2.07 0 001-.6c.289-.29.525-.63.7-1a5 5 0 00.5-1.3l4-10.8c-.2-.1-.2-.1-.2-.2M115.92 23.6a.91.91 0 00-.7.3 1.06 1.06 0 001.5 1.5 1.09 1.09 0 000-1.5 1.14 1.14 0 00-.8-.3M133.72 16.9a4.92 4.92 0 00-1.5-1 5.26 5.26 0 00-3.9 0 3.07 3.07 0 00-1.5 1 4 4 0 00-1 1.5 9.27 9.27 0 00-.4 2.4 5.7 5.7 0 00.4 2.2 5.07 5.07 0 002.5 2.5c1.252.5 2.648.5 3.9 0a3.07 3.07 0 001.5-1 4 4 0 001-1.5 7.8 7.8 0 00.4-2.2 6.05 6.05 0 00-.4-2.4 3.07 3.07 0 00-1-1.5m-.5 5.5a3.88 3.88 0 01-.6 1.1 3.59 3.59 0 01-1 .7c-.84.3-1.76.3-2.6 0a3.59 3.59 0 01-1-.7 2.38 2.38 0 01-.6-1.1 7.77 7.77 0 01-.2-1.6 11 11 0 01.2-1.8 3.32 3.32 0 011.7-1.8c.84-.3 1.76-.3 2.6 0 .37.175.71.411 1 .7.295.306.502.686.6 1.1a11 11 0 01.2 1.8 5 5 0 01-.3 1.6M119.52 17.9a1.83 1.83 0 011-.7 3 3 0 011.3-.2 5 5 0 011.2.2c.288.13.557.298.8.5a.63.63 0 00.6 0l.5-.5c.2-.1.2-.4 0-.6a5.67 5.67 0 00-1.3-.8 6.17 6.17 0 00-3.8 0 4 4 0 00-1.5 1 5.6 5.6 0 00-1 1.5 8.59 8.59 0 000 4.5 3.77 3.77 0 00.9 1.5 4 4 0 001.5 1 5 5 0 003.8 0 3.53 3.53 0 001.3-.8.64.64 0 000-.6l-.5-.4a.64.64 0 00-.6 0 3 3 0 01-2 .8 3.08 3.08 0 01-1.3-.3 2.18 2.18 0 01-.9-.7 2.38 2.38 0 01-.6-1.1 8.81 8.81 0 01-.2-1.7 9.85 9.85 0 01.2-1.7 7 7 0 00.6-.9M149.42 17.8a3.38 3.38 0 00-.6-1.2 2.1 2.1 0 00-1.1-.7 4.53 4.53 0 00-1.6-.3 3.29 3.29 0 00-1.7.4 4.74 4.74 0 00-1 1v.1h-.1a.1.1 0 01-.1-.1v-.1c0-.1-.1-.1-.1-.2a2.65 2.65 0 00-.5-.6 2 2 0 00-.8-.4 4.48 4.48 0 00-2.3 0 3.55 3.55 0 00-.9.4 3 3 0 00-.7.5l-.2.2h-.1c-.1 0-.1 0-.1-.1v-.6a.43.43 0 00-.4-.4h-.5a.43.43 0 00-.4.4v9a.43.43 0 00.4.4h.6a.43.43 0 00.4-.4v-4.7a3.4 3.4 0 01.2-1.4 3.7 3.7 0 01.5-1.1 2.18 2.18 0 01.9-.7 2.74 2.74 0 011.3-.2 1.38 1.38 0 011.3.6 4.81 4.81 0 01.4 2.1v5.4a.43.43 0 00.4.4h.6a.43.43 0 00.4-.4v-5.5a2.15 2.15 0 01.2-1.1c.106-.3.277-.573.5-.8a3 3 0 01.7-.5 2.39 2.39 0 01.9-.2 2.15 2.15 0 011.1.2c.27.107.51.279.7.5.2.218.307.505.3.8.082.292.116.597.1.9v5.7a.43.43 0 00.4.4h.6a.43.43 0 00.4-.4v-5.8a3.81 3.81 0 00-.1-1.5"/></g></g></svg>
